<?xml version="1.0" encoding="UTF-8"?><svg id="Layer_1" xmlns="http://www.w3.org/2000/svg" viewBox="0 0 500 500"><defs><style>.cls-1{fill:#5a6eac;}</style></defs><path class="cls-1" d="m162.92,219.52h-18.87l-7.26,43.54h17.42c13.06-1.45,24.67-5.81,26.12-30.48,0-8.71-7.26-13.06-17.41-13.06Z"/><path class="cls-1" d="m357.4,219.52h-18.87l-7.26,43.54h17.42c13.06-1.45,24.67-5.81,26.12-30.48,0-8.71-7.26-13.06-17.41-13.06Z"/><path class="cls-1" d="m250,139.7c-117.02,0-211.89,49.38-211.89,110.3s94.87,110.3,211.89,110.3,211.89-49.38,211.89-110.3-94.87-110.3-211.89-110.3Zm-92.89,145.13h-26.12l-5.81,30.48h-27.58l23.22-117.56h53.7c23.22,1.45,34.83,13.06,34.83,33.38,0,34.83-27.57,55.15-52.25,53.7Zm109.26-65.31h-21.77l-13.06,65.31h-27.58l23.22-117.55h27.58l-5.81,30.48h26.12c23.22,1.45,31.93,13.06,29.03,27.58l-10.16,59.5h-29.03l10.16-53.7c1.45-7.26,1.45-11.61-8.71-11.61Zm85.22,65.31h-26.12l-5.81,30.48h-27.57l23.22-117.56h53.7c23.22,1.45,34.83,13.06,34.83,33.38,0,34.83-27.58,55.15-52.25,53.7Z"/></svg>